<?xml version="1.0" encoding="utf-8"?>
<!-- Generator: Adobe Illustrator 27.0.0, SVG Export Plug-In . SVG Version: 6.00 Build 0)  -->
<svg version="1.1" id="Livello_1" xmlns="http://www.w3.org/2000/svg" xmlns:xlink="http://www.w3.org/1999/xlink" x="0px" y="0px"
	 viewBox="0 0 200 78.12" style="enable-background:new 0 0 200 78.12;" xml:space="preserve">
<path d="M59.11,12.38c0,2.02-1.62,3.64-3.64,3.64c-2.01,0-3.64-1.63-3.64-3.64c0-2.02,1.62-3.64,3.64-3.64
	C57.49,8.74,59.11,10.36,59.11,12.38z"/>
<path d="M58.46,23.27h-6.01v23.7c0,0.65,0.03,1.04,0.03,1.17c0.19,3.15,2.76,5.66,5.98,5.66V23.27z"/>
<path d="M197.58,23.34h-6.01v23.7c0,0.65,0.03,1.04,0.03,1.17c0.19,3.15,2.76,5.66,5.98,5.66V23.34z"/>
<path d="M198.2,12.38c0,2.02-1.62,3.64-3.64,3.64c-2.01,0-3.64-1.63-3.64-3.64c0-2.02,1.62-3.64,3.64-3.64
	C196.57,8.74,198.2,10.36,198.2,12.38z"/>
<path d="M180.95,1h-6.01v46.04c0,0.65,0.03,1.04,0.03,1.17c0.2,3.15,2.76,5.66,5.98,5.66V1z"/>
<path d="M165.87,38.32c0-8.29-5.98-16-15.27-16c-9.29,0-15.27,7.71-15.27,16c0,8.29,5.98,16,15.27,16
	C159.9,54.32,165.87,46.61,165.87,38.32z M158.96,41.12c0,6.27-0.29,12.03-8.35,12.03c-8.05,0-8.35-5.75-8.35-12.03v-5.62
	c0-6.27,0.29-12.03,8.35-12.03c8.06,0,8.35,5.75,8.35,12.03V41.12z"/>
<path d="M95.55,46.16h-1.1c0,5.95-4.26,5.75-10.1,5.75h-9.58l21.02-28.64H68.59v6.92h1.14c-0.03-6.21,5.62-5.75,9.78-5.79h8.15
	L66.51,53.05h29.01v-6.86L95.55,46.16z"/>
<path d="M130.47,46.16h-1.1c0,5.95-4.25,5.75-10.1,5.75h-9.58l21.02-28.64h-27.19v6.92h1.14c-0.03-6.21,5.59-5.75,9.78-5.79h8.15
	l-21.15,28.64h29.01v-6.86L130.47,46.16z"/>
<path d="M16.3,29.58V13.42c0-2.08-0.03-3.84,0.16-5.23c0.32-2.21,1.53-3.93,4.68-3.93c10.13,0,12.05,7.9,12.05,13.59
	c0,8.29-4.94,11.77-13.35,11.77h-3.57L16.3,29.58z M72.3,73.24c-13.28-1.27-19.07-9.17-23.06-14.79
	c-7.11-10.01-15.53-24.58-18.22-28.87C44.49,24.44,44.52,7.05,29.45,3.6C27.76,3.21,25,3.05,22.92,3.05H2.17v1.24c0,0,0.29,0,1.36,0
	c0.13,0,0.58,0,0.71,0c0.36,0,0.68,0.07,0.97,0.13C6.1,4.58,6.75,4.93,7.17,5.23c1.66,1.43,1.85,3.15,1.88,5.85v41.94h7.28V31.01
	h6.37c4.9,7.45,13.54,21.17,24.36,32.19c5.13,5.23,11.99,11.25,26.05,11.28c1.69,0,5.03,0.03,5.03,0.03V73.4
	C78.14,73.4,74.02,73.4,72.3,73.24z"/>
</svg>
